<svg width="32px" height="32px" viewBox="0 0 32 32" version="1.1" xmlns="http://www.w3.org/2000/svg" xmlns:xlink="http://www.w3.org/1999/xlink">
	<g stroke-width="2.5" stroke="#404040" fill="none" fill-rule="evenodd" stroke-linecap="round" stroke-linejoin="round"><path d="M22.563 15.063a7.5 7.5 0 0 1 7.5 7.5 7.5 7.5 0 0 1-7.5 7.5 7.5 7.5 0 0 1-7.5-7.5 7.5 7.5 0 0 1 7.5-7.5z"/><path d="M25.878 22.563h-3.316v-3.314"/><path d="M14.117 29.938c-7.697-1.04-13.093-8.124-12.053-15.82 1.04-7.697 8.123-13.094 15.82-12.054A14.065 14.065 0 0 1 29.94 14.133"/><path d="M12.611 29.651C10.71 26.861 9.437 21.791 9.437 16c0-5.791 1.273-10.86 3.174-13.651M1.969 15.063h11.904M4.749 7.563H27.25M3.56 22.563h7.752M19.389 2.349a21.219 21.219 0 0 1 2.875 8.92"/></g>
</svg>
